<svg xmlns="http://www.w3.org/2000/svg" viewBox="0 0 1201.89 612.28">
  <g id="Brand" fill="currentColor">
    <g id="Codegram">
      <path class="cls-1"
        d="M896.29,6.22A298.93,298.93,0,0,0,686.53,91.8L409.3,414.42a150,150,0,1,1,0-216.56l29.94,34.86,35.51-41.33-27.26-31.72A203.23,203.23,0,0,0,305.6,102.2c-112.63,0-204,91.3-204,204s91.32,204,204,204a203.27,203.27,0,0,0,141.89-57.47L724.7,130A245.11,245.11,0,0,1,896.29,60.19c135.82,0,245.94,110.13,245.94,246S1032.11,552.09,896.29,552.09A245.18,245.18,0,0,1,724.7,482.32l-17.26-20.09L735,430.11l19.36,22.52A203.27,203.27,0,0,0,896.29,510.1c112.63,0,204-91.31,204-204s-91.32-203.95-204-203.95A203.23,203.23,0,0,0,754.4,159.67L477.19,482.32A245.16,245.16,0,0,1,305.6,552.09C169.78,552.09,59.66,442,59.66,306.15s110.12-246,245.94-246A245.09,245.09,0,0,1,477.19,130l25.16,29.28L537.83,118,515.36,91.8A298.93,298.93,0,0,0,305.6,6.22C140,6.22,5.67,140.49,5.67,306.15S140,606.07,305.6,606.07a299,299,0,0,0,209.76-85.58L792.59,197.86a150,150,0,1,1,0,216.56l-57.52-66.95L699.55,388.8,672,420.93l-35.5,41.3,50.07,58.26a299,299,0,0,0,209.76,85.58c165.64,0,299.93-134.28,299.93-299.92S1061.93,6.22,896.29,6.22Z" />
    </g>
  </g>
</svg>